<svg xmlns="http://www.w3.org/2000/svg" viewBox="0 0 64 64" role="img" aria-label="AI Instagram Content Studio">
  <defs>
    <linearGradient id="grad" x1="0%" y1="0%" x2="100%" y2="100%">
      <stop offset="0%" stop-color="#8b5cf6"/>
      <stop offset="100%" stop-color="#ec4899"/>
    </linearGradient>
    <filter id="shadow" x="-20%" y="-20%" width="140%" height="140%">
      <feDropShadow dx="0" dy="2" stdDeviation="2" flood-color="#000" flood-opacity="0.18"/>
    </filter>
  </defs>
  <rect width="64" height="64" rx="16" fill="#111827"/>
  <rect x="10" y="10" width="44" height="44" rx="12" fill="url(#grad)" filter="url(#shadow)"/>
  <path d="M23 23h18a2 2 0 0 1 2 2v16a2 2 0 0 1-2 2H23a2 2 0 0 1-2-2V25a2 2 0 0 1 2-2Z" fill="#fff" opacity="0.9"/>
  <circle cx="34" cy="33" r="5" fill="#111827"/>
  <circle cx="34" cy="33" r="3.2" fill="#fef2f2"/>
  <path d="M28 19h12" stroke="#fef2f2" stroke-width="2" stroke-linecap="round"/>
  <path d="M24 32h4" stroke="#fef2f2" stroke-width="2" stroke-linecap="round"/>
</svg>
